# xmcd
#
# Track frame offsets:
#	150
#	15694
#	35951
#	48733
#	64467
#	81940
#	84762
#	103931
#	122480
#	135962
#	150506
#	168457
#
# Disc length: 2519 seconds
# Revision: 0
# Processed by: cddbd v1.5.2PL0 Copyright (c) Steve Scherf et al.
# Submitted via: dBpowerAMP V12.0
#
DISCID=9b09d50c
DTITLE=Ghost Town Blues Band - Dark Horse
DYEAR=2012
DGENRE=Blues-rock
TTITLE0=Another Lover
TTITLE1=Memphis Train
TTITLE2=Finish What You Started
TTITLE3=Dark Horse
TTITLE4=Meet Me At The Juke Joint
TTITLE5=Blues Box Breakdown
TTITLE6=Memphis Blues
TTITLE7=Before You Hit The Ground
TTITLE8=Messin' With The Kid
TTITLE9=Good To Be Me
TTITLE10=Real Funky Groove
TTITLE11=Biscuit Test
EXTD=
EXTT0=
EXTT1=
EXTT2=
EXTT3=
EXTT4=
EXTT5=
EXTT6=
EXTT7=
EXTT8=
EXTT9=
EXTT10=
EXTT11=
PLAYORDER=
